<svg xmlns="http://www.w3.org/2000/svg" width="60" height="60" viewBox="0 0 40 39.328">
  <g transform="translate(-37.032 -27.411)">
    <rect width="40" height="39.328" transform="translate(37.032 27.411)" fill="none"/>
    <path d="M99.627,78.414a7.182,7.182,0,0,1-7.181,7.181H70.9a7.182,7.182,0,0,1-7.181-7.181V56.866A7.182,7.182,0,0,1,70.9,49.681H92.447a7.182,7.182,0,0,1,7.181,7.185Z" transform="translate(-24.641 -20.563)" fill="#ffbe00"/>
    <path d="M238.795,155.27v-9.947a.461.461,0,0,0-.465-.457h-9.776a.461.461,0,0,0-.465.457v10.258a.461.461,0,0,0,.465.457H233c.121.041.321.191.141.75a9.005,9.005,0,0,1-3.406,4.621c-.192.139-.465.356-.465.356-.162.181.237.606.237.606l2.727,3.55s.333.574.961.027c0,0,3.926-2.926,4.833-5.8a12.627,12.627,0,0,0,.782-4.883Z" transform="translate(-176.415 -108.45)" fill="#fff"/>
  </g>
</svg>
