<svg xmlns="http://www.w3.org/2000/svg" width="130" height="130" viewBox="0 0 100 100">
  <g id="그룹_564" data-name="그룹 564" transform="translate(56 -2040.62)">
    <circle id="타원_140" data-name="타원 140" cx="50" cy="50" r="50" transform="translate(-56 2040.62)" fill="#ff9600"/>
    <path id="패스_489" data-name="패스 489" d="M16.848,38.027a9.083,9.083,0,0,1-1.9-1.98,11.436,11.436,0,0,1-1.419-2.773L8.628,19.526h0L6.415,13.267a9.247,9.247,0,0,0-1.149-2.243,7.349,7.349,0,0,0-1.533-1.6A6.088,6.088,0,0,0,.026,8.14H0l.643-1.8A11.405,11.405,0,0,1,2.062,3.564a9.068,9.068,0,0,1,1.9-1.98,7.42,7.42,0,0,1,9.165,0,9.088,9.088,0,0,1,1.9,1.98,11.422,11.422,0,0,1,1.419,2.772l4.907,13.748h0l2.212,6.259A9.279,9.279,0,0,0,24.7,28.587a7.354,7.354,0,0,0,1.534,1.6,6.089,6.089,0,0,0,3.708,1.282h.026l-.643,1.8a11.4,11.4,0,0,1-1.42,2.773,9.058,9.058,0,0,1-1.9,1.98,7.419,7.419,0,0,1-9.164,0Z" transform="translate(-20.774 2070.545)" fill="#fff"/>
    <path id="패스_490" data-name="패스 490" d="M16.848,38.027a9.083,9.083,0,0,1-1.9-1.98,11.436,11.436,0,0,1-1.419-2.773L8.628,19.526h0L6.415,13.267a9.247,9.247,0,0,0-1.149-2.243,7.349,7.349,0,0,0-1.533-1.6A6.088,6.088,0,0,0,.026,8.14H0l.643-1.8A11.405,11.405,0,0,1,2.062,3.564a9.068,9.068,0,0,1,1.9-1.98,7.42,7.42,0,0,1,9.165,0,9.088,9.088,0,0,1,1.9,1.98,11.422,11.422,0,0,1,1.419,2.772l4.907,13.748h0l2.212,6.259A9.279,9.279,0,0,0,24.7,28.587a7.354,7.354,0,0,0,1.534,1.6,6.089,6.089,0,0,0,3.708,1.282h.026l-.643,1.8a11.4,11.4,0,0,1-1.42,2.773,9.058,9.058,0,0,1-1.9,1.98,7.419,7.419,0,0,1-9.164,0Z" transform="translate(6.52 2070.545)" fill="#fff"/>
    <path id="패스_491" data-name="패스 491" d="M16.848,38.027a9.083,9.083,0,0,1-1.9-1.98,11.436,11.436,0,0,1-1.419-2.773L8.628,19.526h0L6.415,13.267a9.247,9.247,0,0,0-1.149-2.243,7.349,7.349,0,0,0-1.533-1.6A6.088,6.088,0,0,0,.026,8.14H0l.643-1.8A11.405,11.405,0,0,1,2.062,3.564a9.068,9.068,0,0,1,1.9-1.98,7.42,7.42,0,0,1,9.165,0,9.088,9.088,0,0,1,1.9,1.98,11.422,11.422,0,0,1,1.419,2.772l4.907,13.748h0l2.212,6.259A9.279,9.279,0,0,0,24.7,28.587a7.354,7.354,0,0,0,1.534,1.6,6.089,6.089,0,0,0,3.708,1.282h.026l-.643,1.8a11.4,11.4,0,0,1-1.42,2.773,9.058,9.058,0,0,1-1.9,1.98,7.419,7.419,0,0,1-9.164,0Z" transform="translate(-48.068 2070.545)" fill="#fff"/>
  </g>
</svg>
